<mxfile host="app.diagrams.net" modified="2023-10-16T12:33:14.779Z" agent="Mozilla/5.0 (Windows NT 10.0; Win64; x64) AppleWebKit/537.36 (KHTML, like Gecko) Chrome/116.0.0.0 Safari/537.36 Edg/116.0.1938.98" etag="Va571LAIHE4IKF1bJSgQ" version="22.0.4" type="github">
  <diagram name="Pagina-1" id="vtF8noEJ9tD_e3JN_yAx">
    <mxGraphModel dx="962" dy="682" grid="1" gridSize="10" guides="1" tooltips="1" connect="1" arrows="1" fold="1" page="1" pageScale="1" pageWidth="827" pageHeight="1169" math="0" shadow="0">
      <root>
        <mxCell id="0" />
        <mxCell id="1" parent="0" />
        <mxCell id="c3L5ZRQM2OSXuD-fLr5a-1" value="Wijzigingsvoorstel beoordelen" style="rounded=1;whiteSpace=wrap;html=1;" vertex="1" parent="1">
          <mxGeometry x="80" y="40" width="120" height="60" as="geometry" />
        </mxCell>
      </root>
    </mxGraphModel>
  </diagram>
</mxfile>
